<svg width="228" height="228" viewBox="0 0 228 228" fill="none" xmlns="http://www.w3.org/2000/svg">
<path d="M22.0336 23.75H228V228H22.0336V23.75Z" fill="white" fill-opacity="0.88"/>
<rect width="205.966" height="204.25" fill="#D21242"/>
<path d="M9.73438 132H22.0352L39.4766 84.1279C39.8438 83.1182 40.1344 82.139 40.3486 81.1904C40.5934 80.2419 40.8076 79.278 40.9912 78.2988H41.4043C41.5879 79.278 41.7868 80.2419 42.001 81.1904C42.2458 82.139 42.5518 83.1182 42.9189 84.1279L60.3604 132H74.3594L48.6104 64.8047H35.1162L9.73438 132ZM23.458 116.762H59.6719L56.5049 106.894H26.625L23.458 116.762ZM77.6641 100.697C77.6641 111.223 80.3874 119.301 85.834 124.932C91.3112 130.562 98.4102 133.377 107.131 133.377C115.454 133.377 121.941 131.174 126.592 126.768C131.273 122.361 133.798 116.823 134.165 110.152V109.097H120.992L120.946 110.152C120.701 114.008 119.462 117.144 117.229 119.562C114.995 121.948 111.644 123.142 107.177 123.142C102.22 123.142 98.3031 121.336 95.4268 117.726C92.5505 114.115 91.1123 108.837 91.1123 101.891V95.2812C91.1123 87.7845 92.5811 82.3685 95.5186 79.0332C98.4561 75.6979 102.281 74.0303 106.993 74.0303C111.705 74.0303 115.209 75.1777 117.504 77.4727C119.829 79.7676 120.992 82.9346 120.992 86.9736V88.1211H134.165V87.1113C134.165 80.3796 131.748 74.8105 126.913 70.4043C122.078 65.998 115.484 63.7949 107.131 63.7949C98.4408 63.7949 91.3571 66.5947 85.8799 72.1943C80.4027 77.7939 77.6641 85.8874 77.6641 96.4746V100.697ZM140.499 113.136C140.499 119.653 142.901 124.656 147.705 128.145C152.54 131.633 158.812 133.377 166.523 133.377C174.265 133.377 180.461 131.618 185.112 128.099C189.794 124.58 192.135 119.715 192.135 113.503C192.135 107.567 190.284 103.007 186.581 99.8252C182.879 96.6429 177.554 94.1185 170.608 92.252C163.999 90.4466 159.73 88.9167 157.803 87.6621C155.875 86.377 154.911 84.5257 154.911 82.1084C154.911 79.5993 155.814 77.6104 157.619 76.1416C159.455 74.6729 162.285 73.9385 166.11 73.9385C169.966 73.9385 172.857 74.8564 174.785 76.6924C176.743 78.4977 177.723 80.8844 177.723 83.8525V84.7705H190.804V83.7148C190.804 77.748 188.555 72.944 184.057 69.3027C179.559 65.6309 173.561 63.7949 166.064 63.7949C158.568 63.7949 152.616 65.5544 148.21 69.0732C143.804 72.5921 141.601 77.2279 141.601 82.9805C141.601 88.4271 143.375 92.6956 146.925 95.7861C150.474 98.846 155.783 101.294 162.852 103.13C169.461 104.905 173.775 106.542 175.795 108.041C177.845 109.54 178.87 111.652 178.87 114.375C178.87 117.037 177.799 119.194 175.657 120.847C173.546 122.468 170.486 123.279 166.478 123.279C162.5 123.279 159.394 122.423 157.16 120.709C154.926 118.995 153.81 116.44 153.81 113.044V112.08H140.499V113.136Z" fill="white"/>
</svg>
